<svg width="58" height="58" viewBox="0 0 58 58" fill="none" xmlns="http://www.w3.org/2000/svg">
<g clip-path="url(#clip0)">
<path d="M29.0256 0C21.4829 0 14.6495 6.11701 14.6495 13.6621C14.6495 24.8802 26.1096 26.0662 29.0256 43.1282C31.9415 26.0662 43.4016 24.8802 43.4016 13.6621C43.4016 6.11701 36.5706 0 29.0256 0ZM29.0256 19.1681C26.378 19.1681 24.2335 17.0237 24.2335 14.3761C24.2335 11.7285 26.378 9.58404 29.0256 9.58404C31.6732 9.58404 33.8176 11.7285 33.8176 14.3761C33.8176 17.0237 31.6732 19.1681 29.0256 19.1681ZM57.7777 57.5042L41.7076 51.6891L29.0256 57.5042L15.6534 51.6891L0.273438 57.5042L9.85748 35.9402L19.3457 32.1449C20.2562 33.3812 21.1211 34.7326 21.8878 36.2876L13.4467 39.666L9.31358 48.9625L15.7157 46.5425L19.3241 40.1044L17.8026 47.3979L27.8395 51.6843L29.0256 46.842L30.1397 51.6915L40.0831 47.1631L38.6024 39.896L42.3689 46.8348L48.9148 49.2045L44.7482 39.6731L36.1681 36.2828C36.9324 34.7254 37.7997 33.3716 38.7126 32.1353L48.347 35.9402L57.7777 57.5042Z" fill="#2A3630"/>
</g>
<defs>
<clipPath id="clip0">
<rect width="57.5042" height="57.5042" fill="white" transform="translate(0.273438)"/>
</clipPath>
</defs>
</svg>
