<svg width="58" height="59" viewBox="0 0 58 59" fill="none" xmlns="http://www.w3.org/2000/svg">
<g clip-path="url(#clip0)">
<path d="M35.5988 15.8916C33.8305 15.8102 33.2986 15.7958 28.8205 15.7958C24.3423 15.7958 23.8128 15.8126 22.0446 15.8916C17.4945 16.1001 15.3765 18.2541 15.168 22.7682C15.0889 24.5365 15.0698 25.066 15.0698 29.5441C15.0698 34.0223 15.0889 34.5518 15.168 36.3224C15.3765 40.8245 17.485 42.9905 22.0446 43.199C23.8104 43.278 24.3423 43.2972 28.8205 43.2972C33.301 43.2972 33.8305 43.2804 35.5988 43.199C40.1488 42.9929 42.2645 40.8317 42.4753 36.3224C42.5544 34.5542 42.5712 34.0223 42.5712 29.5441C42.5712 25.066 42.5544 24.5365 42.4753 22.7682C42.2645 18.2565 40.144 16.1001 35.5988 15.8916ZM28.8205 38.1578C24.0644 38.1578 20.2068 34.3026 20.2068 29.5441C20.2068 24.788 24.0644 20.9329 28.8205 20.9329C33.5766 20.9329 37.4341 24.788 37.4341 29.5441C37.4341 34.3002 33.5766 38.1578 28.8205 38.1578ZM37.7744 22.6053C36.6626 22.6053 35.7617 21.7044 35.7617 20.5926C35.7617 19.4809 36.6626 18.58 37.7744 18.58C38.8861 18.58 39.787 19.4809 39.787 20.5926C39.787 21.702 38.8861 22.6053 37.7744 22.6053ZM34.4104 29.5441C34.4104 32.6326 31.9065 35.134 28.8205 35.134C25.7344 35.134 23.2306 32.6326 23.2306 29.5441C23.2306 26.4557 25.7344 23.9542 28.8205 23.9542C31.9065 23.9542 34.4104 26.4557 34.4104 29.5441ZM28.8205 0.791992C12.9421 0.791992 0.0683594 13.6658 0.0683594 29.5441C0.0683594 45.4225 12.9421 58.2962 28.8205 58.2962C44.6988 58.2962 57.5726 45.4225 57.5726 29.5441C57.5726 13.6658 44.6988 0.791992 28.8205 0.791992ZM45.4919 36.459C45.2164 42.5568 41.8212 45.9352 35.7378 46.2156C33.9479 46.297 33.3753 46.3162 28.8205 46.3162C24.2657 46.3162 23.6954 46.297 21.9056 46.2156C15.8101 45.9352 12.4294 42.5521 12.149 36.459C12.0676 34.6716 12.0484 34.0989 12.0484 29.5441C12.0484 24.9893 12.0676 24.419 12.149 22.6292C12.4294 16.5338 15.8125 13.153 21.9056 12.8751C23.6954 12.7912 24.2657 12.772 28.8205 12.772C33.3753 12.772 33.9479 12.7912 35.7378 12.8751C41.8356 13.1554 45.2188 16.5458 45.4919 22.6292C45.5734 24.419 45.5926 24.9893 45.5926 29.5441C45.5926 34.0989 45.5734 34.6716 45.4919 36.459Z" fill="#2A3630"/>
</g>
<defs>
<clipPath id="clip0">
<rect width="57.5042" height="57.5042" fill="white" transform="translate(0.0683594 0.791992)"/>
</clipPath>
</defs>
</svg>
